# xmcd
#
# Track frame offsets:
#	150
#	15983
#	32270
#	55277
#	67427
#	82449
#	97845
#	113237
#
# Disc length: 1708 seconds
#
# Revision: 1
# Processed by: cddbd v1.5.2PL0 Copyright (c) Steve Scherf et al.
# Submitted via: audiograbber 1.83.01
#
DISCID=6406aa08
DTITLE=Real De Catorce - Una Razón Para Vivir [CD 01]
DYEAR=2012
DGENRE=Blues
TTITLE0=La Llamé A Mi Amante
TTITLE1=Golpéame
TTITLE2=Mira Ese Hombre
TTITLE3=Canciones Para Idiotas
TTITLE4=Aún Sin Caer
TTITLE5=Cuando Hables De Dolor
TTITLE6=Vulnerable Amor
TTITLE7=Una Razón Para Vivir
EXTD=
EXTT0=
EXTT1=
EXTT2=
EXTT3=
EXTT4=
EXTT5=
EXTT6=
EXTT7=
PLAYORDER=
